# xmcd
#
# Track frame offsets:
#	182
#	14475
#	29267
#	42472
#	57685
#	72082
#	88095
#	99635
#	114017
#	128142
#	142802
#	157232
#
# Disc length: 2316 seconds
#
# Revision: 0
# Processed by: cddbd v1.4PL0 Copyright (c) Steve Scherf et al.
# Submitted via: dBpowerAMP V4.0
#
DISCID=a4090a0c
DTITLE=Paul Jefferson - Paul Jefferson
DYEAR=1996
DGENRE=Country
TTITLE0=Check Please
TTITLE1=I Will
TTITLE2=I Might Just Make It
TTITLE3=Unconditionally
TTITLE4=Nothing Comes Close
TTITLE5=I Can't Turn That Train Around
TTITLE6=Missouri
TTITLE7=Fear Of A Broken Heart
TTITLE8=I'm Here
TTITLE9=A Man Ain't Supposed To Cry
TTITLE10=That's As Close As I'll Get
TTITLE11=Common Ground
EXTD=This Album Contains Two extra Tracks Uncredited On The Sleevenotes
EXTT0=
EXTT1=
EXTT2=
EXTT3=
EXTT4=
EXTT5=
EXTT6=
EXTT7=
EXTT8=
EXTT9=
EXTT10=
EXTT11=
PLAYORDER=
